<?xml version="1.0" encoding="UTF-8"?>
<!DOCTYPE svg PUBLIC "-//W3C//DTD SVG 1.1//EN" "http://www.w3.org/Graphics/SVG/1.1/DTD/svg11.dtd">
<svg xmlns="http://www.w3.org/2000/svg" version="1.1" width="469px" height="469px" style="shape-rendering:geometricPrecision; text-rendering:geometricPrecision; image-rendering:optimizeQuality; fill-rule:evenodd; clip-rule:evenodd" xmlns:xlink="http://www.w3.org/1999/xlink">
<g><path style="opacity:1" fill="#ecebeb" d="M -0.5,-0.5 C 155.833,-0.5 312.167,-0.5 468.5,-0.5C 468.5,155.833 468.5,312.167 468.5,468.5C 312.167,468.5 155.833,468.5 -0.5,468.5C -0.5,312.167 -0.5,155.833 -0.5,-0.5 Z"/></g>
<g><path style="opacity:1" fill="#5c5a5c" d="M 125.5,51.5 C 117.413,49.9942 109.413,50.3276 101.5,52.5C 101.611,51.8826 101.944,51.3826 102.5,51C 110.414,47.527 118.081,47.6937 125.5,51.5 Z"/></g>
<g><path style="opacity:1" fill="#020202" d="M 125.5,51.5 C 126.514,52.6737 127.847,53.3404 129.5,53.5C 129.973,54.9063 130.973,55.573 132.5,55.5C 133.5,56.8333 134.5,58.1667 135.5,59.5C 135.738,61.4044 136.738,62.7377 138.5,63.5C 141.585,73.1369 140.919,82.4702 136.5,91.5C 136.5,91.8333 136.5,92.1667 136.5,92.5C 133.474,95.1954 130.474,97.8621 127.5,100.5C 125.302,100.12 123.635,100.787 122.5,102.5C 121.833,102.5 121.167,102.5 120.5,102.5C 116.5,102.5 112.5,102.5 108.5,102.5C 107.07,101.463 105.403,100.796 103.5,100.5C 102.508,100.672 101.842,100.338 101.5,99.5C 101.027,98.0937 100.027,97.427 98.5,97.5C 97.205,96.5116 95.8717,95.5116 94.5,94.5C 94.2671,92.9382 93.6005,91.6049 92.5,90.5C 91.9556,88.4205 91.1223,86.4205 90,84.5C 89.3466,78.1383 89.5133,71.805 90.5,65.5C 90.5,64.8333 90.5,64.1667 90.5,63.5C 92.914,62.0892 94.5806,60.0892 95.5,57.5C 98.0892,56.5806 100.089,54.914 101.5,52.5C 109.413,50.3276 117.413,49.9942 125.5,51.5 Z"/></g>
<g><path style="opacity:1" fill="#98989a" d="M 125.5,51.5 C 127.483,51.1568 128.817,51.8235 129.5,53.5C 127.847,53.3404 126.514,52.6737 125.5,51.5 Z"/></g>
<g><path style="opacity:1" fill="#898989" d="M 129.5,53.5 C 131.027,53.427 132.027,54.0937 132.5,55.5C 130.973,55.573 129.973,54.9063 129.5,53.5 Z"/></g>
<g><path style="opacity:1" fill="#474647" d="M 101.5,52.5 C 100.089,54.914 98.0892,56.5806 95.5,57.5C 96.9108,55.086 98.9108,53.4194 101.5,52.5 Z"/></g>
<g><path style="opacity:1" fill="#424443" d="M 135.5,59.5 C 137.262,60.2623 138.262,61.5956 138.5,63.5C 136.738,62.7377 135.738,61.4044 135.5,59.5 Z"/></g>
<g><path style="opacity:1" fill="#605f60" d="M 95.5,57.5 C 94.5806,60.0892 92.914,62.0892 90.5,63.5C 91.4194,60.9108 93.086,58.9108 95.5,57.5 Z"/></g>
<g><path style="opacity:1" fill="#7d7a7b" d="M 90.5,63.5 C 90.5,64.1667 90.5,64.8333 90.5,65.5C 89.7321,66.2625 89.2321,67.2625 89,68.5C 88.501,72.8206 88.3343,77.1539 88.5,81.5C 87.5166,77.7016 87.1832,73.7016 87.5,69.5C 87.7549,67.0326 88.7549,65.0326 90.5,63.5 Z"/></g>
<g><path style="opacity:1" fill="#201f1f" d="M 90.5,65.5 C 89.5133,71.805 89.3466,78.1383 90,84.5C 91.1223,86.4205 91.9556,88.4205 92.5,90.5C 92.1667,90.5 91.8333,90.5 91.5,90.5C 89.5168,87.8838 88.5168,84.8838 88.5,81.5C 88.3343,77.1539 88.501,72.8206 89,68.5C 89.2321,67.2625 89.7321,66.2625 90.5,65.5 Z"/></g>
<g><path style="opacity:1" fill="#b5b4b3" d="M 87.5,69.5 C 87.1832,73.7016 87.5166,77.7016 88.5,81.5C 88.5168,84.8838 89.5168,87.8838 91.5,90.5C 90.5041,90.5858 89.6708,90.2524 89,89.5C 86.5245,82.8256 86.0245,76.1589 87.5,69.5 Z"/></g>
<g><path style="opacity:1" fill="#575756" d="M 138.5,63.5 C 141.925,68.1937 143.258,73.527 142.5,79.5C 142.5,80.5 142.5,81.5 142.5,82.5C 140.864,85.7339 138.864,88.7339 136.5,91.5C 140.919,82.4702 141.585,73.1369 138.5,63.5 Z"/></g>
<g><path style="opacity:1" fill="#eeedeb" d="M 146.5,350.5 C 146.5,273.167 146.5,195.833 146.5,118.5C 147.397,117.402 148.23,117.402 149,118.5C 149.684,117.216 149.517,116.049 148.5,115C 149.744,114.544 150.577,115.044 151,116.5C 151.309,115.234 151.809,114.067 152.5,113C 150.606,111.899 149.939,110.566 150.5,109C 149.874,108.25 149.374,107.416 149,106.5C 147.869,107.604 147.035,107.271 146.5,105.5C 147.262,105.089 148.262,104.923 149.5,105C 147.224,103.844 144.891,102.51 142.5,101C 144.461,98.0372 146.794,95.3706 149.5,93C 148.451,92.5078 147.451,92.6744 146.5,93.5C 145.808,92.9747 145.308,92.3081 145,91.5C 144.784,93.3839 144.117,95.0506 143,96.5C 141.89,94.7571 140.39,93.4238 138.5,92.5C 140.435,89.352 141.768,86.0187 142.5,82.5C 142.5,81.5 142.5,80.5 142.5,79.5C 143.321,76.3586 143.821,73.0252 144,69.5C 144.915,70.3279 145.581,71.3279 146,72.5C 147.356,71.6198 148.856,71.2865 150.5,71.5C 150.491,69.6916 150.991,68.0249 152,66.5C 153.84,67.8331 154.34,67.6665 153.5,66C 154.448,65.5172 155.448,65.3505 156.5,65.5C 156.64,63.8762 155.973,62.7096 154.5,62C 156.424,60.7325 158.09,60.7325 159.5,62C 158.446,63.3876 158.28,64.8876 159,66.5C 159.9,65.2298 161.066,64.2298 162.5,63.5C 161.359,62.5745 161.359,61.7412 162.5,61C 164.011,59.3851 165.344,59.3851 166.5,61C 165.167,61.6667 164.167,62.6667 163.5,64C 165.286,64.7845 166.786,65.9512 168,67.5C 168.667,66.8333 169.333,66.1667 170,65.5C 170.209,67.6886 169.875,69.6886 169,71.5C 169.414,71.0426 169.914,70.7093 170.5,70.5C 171.638,77.0734 172.472,77.0734 173,70.5C 173.874,73.3524 175.041,75.3524 176.5,76.5C 176.518,78.3726 176.018,78.7059 175,77.5C 173.267,79.147 171.434,80.647 169.5,82C 172.412,83.2838 175.245,82.7838 178,80.5C 178.98,81.9814 180.147,83.3147 181.5,84.5C 180.624,85.2508 179.624,85.7508 178.5,86C 181.175,89.0142 183.675,92.1809 186,95.5C 186.451,93.0712 187.285,92.9045 188.5,95C 188.167,95.3333 187.833,95.6667 187.5,96C 189.886,96.2835 190.552,97.2835 189.5,99C 190.833,99.6667 192.167,99.6667 193.5,99C 193.727,97.8647 194.06,96.698 194.5,95.5C 195.681,97.1353 195.681,98.802 194.5,100.5C 195.242,102.35 196.242,103.016 197.5,102.5C 196.147,103.524 195.48,104.857 195.5,106.5C 198.713,106.192 199.713,107.359 198.5,110C 198.944,111.762 199.444,111.595 200,109.5C 201.621,112.301 201.455,114.801 199.5,117C 199.665,118.837 200.332,120.837 201.5,123C 201.614,125.811 201.281,128.478 200.5,131C 202.998,133.185 202.998,135.518 200.5,138C 200.667,138.5 200.833,139 201,139.5C 201.423,138.044 202.256,137.544 203.5,138C 202.903,139.062 202.57,140.228 202.5,141.5C 202.988,145.742 203.654,149.908 204.5,154C 203.707,155.085 203.04,156.252 202.5,157.5C 204.884,160.72 204.884,164.054 202.5,167.5C 203.764,171.233 202.764,174.733 199.5,178C 201.167,179 202.5,180.333 203.5,182C 201.602,182.64 201.268,183.973 202.5,186C 202.245,187.326 201.578,188.326 200.5,189C 201.748,190.959 203.415,192.459 205.5,193.5C 204.418,193.749 203.085,193.915 201.5,194C 201.936,196.178 202.436,198.678 203,201.5C 203.333,201.167 203.667,200.833 204,200.5C 204.374,201.416 204.874,202.25 205.5,203C 204.484,203.519 203.818,204.353 203.5,205.5C 205.947,208.046 206.114,210.713 204,213.5C 203.346,212.304 202.846,212.304 202.5,213.5C 203.025,214.192 203.692,214.692 204.5,215C 202.905,218.01 201.572,221.177 200.5,224.5C 200.667,225.167 200.833,225.833 201,226.5C 201.718,225.549 202.551,225.383 203.5,226C 202.891,228.058 201.891,228.891 200.5,228.5C 201.376,229.251 202.376,229.751 203.5,230C 202.941,232.36 201.608,234.693 199.5,237C 201.095,236.383 202.428,236.716 203.5,238C 202.718,240.74 202.218,243.574 202,246.5C 200.869,245.396 200.035,245.729 199.5,247.5C 201.271,247.28 202.938,248.113 204.5,250C 203.833,250.333 203.167,250.667 202.5,251C 203.743,252.154 204.743,253.488 205.5,255C 202.59,259 201.257,263.333 201.5,268C 200.833,269.667 200.167,271.333 199.5,273C 199.745,274.911 199.745,276.911 199.5,279C 200.167,280 200.833,281 201.5,282C 199.973,283.693 198.64,285.527 197.5,287.5C 197.977,288.478 198.643,289.311 199.5,290C 196.554,293.664 197.22,296.498 201.5,298.5C 200.166,298.529 198.833,299.363 197.5,301C 198.047,303.03 199.047,305.197 200.5,307.5C 199.96,308.748 199.293,309.915 198.5,311C 199.861,312.584 200.528,314.418 200.5,316.5C 201.552,316.351 202.552,316.517 203.5,317C 202.167,318.333 202.167,319.667 203.5,321C 201.109,321.691 201.109,322.691 203.5,324C 202.483,325.049 202.316,326.216 203,327.5C 205.791,329.322 208.291,331.488 210.5,334C 210.167,334.333 209.833,334.667 209.5,335C 211.764,335.236 213.931,335.736 216,336.5C 216.167,337 216.333,337.5 216.5,338C 215.66,339.171 214.827,340.338 214,341.5C 213.667,341.167 213.333,340.833 213,340.5C 212.667,341.833 212.333,343.167 212,344.5C 211.667,344.167 211.333,343.833 211,343.5C 208.796,345.017 206.462,346.35 204,347.5C 202.573,345.213 200.739,344.88 198.5,346.5C 197.304,346.154 197.304,345.654 198.5,345C 196.109,344.713 193.776,344.213 191.5,343.5C 190.304,343.846 190.304,344.346 191.5,345C 189.567,345.251 187.734,345.751 186,346.5C 185.333,345.833 184.667,345.167 184,344.5C 177.22,346.295 170.386,346.962 163.5,346.5C 162.522,346.023 161.689,345.357 161,344.5C 160.667,344.833 160.333,345.167 160,345.5C 159.667,344.5 159.333,343.5 159,342.5C 157.853,343.458 156.853,343.125 156,341.5C 155.727,339.899 155.227,338.399 154.5,337C 155.051,335.602 155.384,334.268 155.5,333C 153.983,331.221 153.149,331.721 153,334.5C 152.667,333.5 152.333,332.5 152,331.5C 150.632,333.027 150.132,334.527 150.5,336C 151.738,335.923 152.738,336.089 153.5,336.5C 149.564,339.875 147.897,344.208 148.5,349.5C 180.168,349.333 211.835,349.5 243.5,350C 211.168,350.5 178.835,350.667 146.5,350.5 Z"/></g>
<g><path style="opacity:1" fill="#81827f" d="M 91.5,90.5 C 91.8333,90.5 92.1667,90.5 92.5,90.5C 93.6005,91.6049 94.2671,92.9382 94.5,94.5C 92.7376,93.7377 91.7376,92.4044 91.5,90.5 Z"/></g>
<g><path style="opacity:1" fill="#a1a0a0" d="M 136.5,92.5 C 134.767,96.5649 131.767,99.2316 127.5,100.5C 130.474,97.8621 133.474,95.1954 136.5,92.5 Z"/></g>
<g><path style="opacity:1" fill="#4e4e4d" d="M 98.5,97.5 C 100.027,97.427 101.027,98.0937 101.5,99.5C 99.9731,99.573 98.9731,98.9063 98.5,97.5 Z"/></g>
<g><path style="opacity:1" fill="#727171" d="M 103.5,101.5 C 103.5,101.167 103.5,100.833 103.5,100.5C 105.403,100.796 107.07,101.463 108.5,102.5C 106.708,102.634 105.042,102.301 103.5,101.5 Z"/></g>
<g><path style="opacity:1" fill="#848384" d="M 127.5,100.5 C 126.07,101.537 124.403,102.204 122.5,102.5C 123.635,100.787 125.302,100.12 127.5,100.5 Z"/></g>
<g><path style="opacity:1" fill="#b2b2b3" d="M 103.5,101.5 C 105.042,102.301 106.708,102.634 108.5,102.5C 112.5,102.5 116.5,102.5 120.5,102.5C 118.777,103.8 116.61,104.467 114,104.5C 111.135,104.395 108.301,104.062 105.5,103.5C 104.287,103.253 103.62,102.586 103.5,101.5 Z"/></g>
<g><path style="opacity:1" fill="#acabac" d="M 87.5,118.5 C 107.069,117.175 126.736,117.175 146.5,118.5C 146.5,195.833 146.5,273.167 146.5,350.5C 146.5,350.833 146.5,351.167 146.5,351.5C 145.833,274.167 145.167,196.833 144.5,119.5C 125.674,118.503 106.674,118.17 87.5,118.5 Z"/></g>
<g><path style="opacity:1" fill="#f2f2f1" d="M 220.5,340.5 C 231.654,341.495 242.988,341.828 254.5,341.5C 254.5,364.167 254.5,386.833 254.5,409.5C 253.579,409.07 253.079,407.736 253,405.5C 252.5,384.503 252.333,363.503 252.5,342.5C 242.251,342.181 232.084,342.514 222,343.5C 220.915,342.707 219.748,342.04 218.5,341.5C 217.167,266.833 217.167,192.167 218.5,117.5C 219.167,191.999 219.833,266.332 220.5,340.5 Z"/></g>
<g><path style="opacity:1" fill="#a8a8a9" d="M 221.5,118.5 C 240.902,117.169 260.402,117.169 280,118.5C 280.5,196.166 280.667,273.833 280.5,351.5C 279.833,274.167 279.167,196.833 278.5,119.5C 259.674,118.503 240.674,118.17 221.5,118.5 Z"/></g>
<g><path style="opacity:1" fill="#000000" d="M 144.5,119.5 C 144.167,197.335 144.501,275.002 145.5,352.5C 177.662,353.498 209.996,353.832 242.5,353.5C 242.5,371.833 242.5,390.167 242.5,408.5C 191.167,408.5 139.833,408.5 88.5,408.5C 88.5,312.167 88.5,215.833 88.5,119.5C 107.167,119.5 125.833,119.5 144.5,119.5 Z"/></g>
<g><path style="opacity:1" fill="#000000" d="M 278.5,119.5 C 278.5,197.167 278.5,274.833 278.5,352.5C 294.986,353.833 311.82,354.5 329,354.5C 346.003,354.5 362.837,354.167 379.5,353.5C 381.487,371.47 382.154,389.803 381.5,408.5C 340.167,408.5 298.833,408.5 257.5,408.5C 257.831,385.661 257.497,362.994 256.5,340.5C 245.346,339.505 234.012,339.172 222.5,339.5C 222.5,266.167 222.5,192.833 222.5,119.5C 241.167,119.5 259.833,119.5 278.5,119.5 Z"/></g>
<g><path style="opacity:1" fill="#4c4b4c" d="M 221.5,118.5 C 240.674,118.17 259.674,118.503 278.5,119.5C 259.833,119.5 241.167,119.5 222.5,119.5C 222.5,192.833 222.5,266.167 222.5,339.5C 234.012,339.172 245.346,339.505 256.5,340.5C 244.833,340.5 233.167,340.5 221.5,340.5C 221.5,266.5 221.5,192.5 221.5,118.5 Z"/></g>
<g><path style="opacity:1" fill="#515151" d="M 87.5,118.5 C 106.674,118.17 125.674,118.503 144.5,119.5C 125.833,119.5 107.167,119.5 88.5,119.5C 88.5,215.833 88.5,312.167 88.5,408.5C 139.833,408.5 191.167,408.5 242.5,408.5C 243.497,390.007 243.83,371.341 243.5,352.5C 244.497,371.326 244.83,390.326 244.5,409.5C 192.167,409.5 139.833,409.5 87.5,409.5C 87.5,312.5 87.5,215.5 87.5,118.5 Z"/></g>
<g><path style="opacity:1" fill="#b9b8b8" d="M 221.5,118.5 C 221.5,192.5 221.5,266.5 221.5,340.5C 233.167,340.5 244.833,340.5 256.5,340.5C 256.5,363.5 256.5,386.5 256.5,409.5C 255.833,409.5 255.167,409.5 254.5,409.5C 254.5,386.833 254.5,364.167 254.5,341.5C 242.988,341.828 231.654,341.495 220.5,340.5C 220.167,266.331 220.501,192.331 221.5,118.5 Z"/></g>
<g><path style="opacity:1" fill="#7e7e7e" d="M 144.5,119.5 C 145.167,196.833 145.833,274.167 146.5,351.5C 178.833,351.5 211.167,351.5 243.5,351.5C 243.5,351.833 243.5,352.167 243.5,352.5C 210.833,352.5 178.167,352.5 145.5,352.5C 144.501,275.002 144.167,197.335 144.5,119.5 Z"/></g>
<g><path style="opacity:1" fill="#79797a" d="M 278.5,119.5 C 279.167,196.833 279.833,274.167 280.5,351.5C 314.671,351.168 348.671,351.502 382.5,352.5C 348.167,352.5 313.833,352.5 279.5,352.5C 279.167,352.5 278.833,352.5 278.5,352.5C 278.5,274.833 278.5,197.167 278.5,119.5 Z"/></g>
<g><path style="opacity:1" fill="#121212" d="M 278.5,352.5 C 278.833,352.5 279.167,352.5 279.5,352.5C 312.662,353.498 345.996,353.832 379.5,353.5C 362.837,354.167 346.003,354.5 329,354.5C 311.82,354.5 294.986,353.833 278.5,352.5 Z"/></g>
<g><path style="opacity:1" fill="#c8c9c8" d="M 243.5,352.5 C 243.5,352.167 243.5,351.833 243.5,351.5C 244.832,360.809 245.499,370.476 245.5,380.5C 245.5,390.339 245.166,400.006 244.5,409.5C 244.83,390.326 244.497,371.326 243.5,352.5 Z"/></g>
<g><path style="opacity:1" fill="#383839" d="M 279.5,352.5 C 313.833,352.5 348.167,352.5 382.5,352.5C 382.5,371.167 382.5,389.833 382.5,408.5C 382.167,408.5 381.833,408.5 381.5,408.5C 382.154,389.803 381.487,371.47 379.5,353.5C 345.996,353.832 312.662,353.498 279.5,352.5 Z"/></g>
<g><path style="opacity:1" fill="#343434" d="M 145.5,352.5 C 178.167,352.5 210.833,352.5 243.5,352.5C 243.83,371.341 243.497,390.007 242.5,408.5C 242.5,390.167 242.5,371.833 242.5,353.5C 209.996,353.832 177.662,353.498 145.5,352.5 Z"/></g>
<g><path style="opacity:1" fill="#4b4b4c" d="M 256.5,340.5 C 257.497,362.994 257.831,385.661 257.5,408.5C 298.833,408.5 340.167,408.5 381.5,408.5C 381.833,408.5 382.167,408.5 382.5,408.5C 340.67,409.499 298.67,409.832 256.5,409.5C 256.5,386.5 256.5,363.5 256.5,340.5 Z"/></g>
<g><path style="opacity:1" fill="#aaaaab" d="M 382.5,352.5 C 383.497,371.659 383.83,390.993 383.5,410.5C 340.997,410.832 298.663,410.499 256.5,409.5C 298.67,409.832 340.67,409.499 382.5,408.5C 382.5,389.833 382.5,371.167 382.5,352.5 Z"/></g>
</svg>
